<?xml version="1.0" encoding="UTF-8" standalone="no"?>
<!DOCTYPE svg PUBLIC "-//W3C//DTD SVG 1.1//EN"
 "http://www.w3.org/Graphics/SVG/1.1/DTD/svg11.dtd">
<!-- Generated by graphviz version 2.36.0 (20140111.2315)
 -->
<!-- Title: Graphical Class Hierarchy Pages: 1 -->
<svg width="338pt" height="180pt"
 viewBox="0.00 0.00 338.00 180.00" xmlns="http://www.w3.org/2000/svg" xmlns:xlink="http://www.w3.org/1999/xlink">
<g id="graph0" class="graph" transform="scale(1 1) rotate(0) translate(4 176)">
<title>Graphical Class Hierarchy</title>
<polygon fill="white" stroke="none" points="-4,4 -4,-176 334,-176 334,4 -4,4"/>
<!-- Node1 -->
<g id="node1" class="node"><title>Node1</title>
<g id="a_node1"><a xlink:href="class_i_graphics.html" target="_top" xlink:title="The lowest level base class of an IGraphics context. ">
<polygon fill="white" stroke="black" points="0.5,-95.5 0.5,-114.5 59.5,-114.5 59.5,-95.5 0.5,-95.5"/>
<text text-anchor="middle" x="30" y="-102.5" font-family="Helvetica,sans-Serif" font-size="10.00">IGraphics</text>
</a>
</g>
</g>
<!-- Node2 -->
<g id="node2" class="node"><title>Node2</title>
<g id="a_node2"><a xlink:href="class_i_graphics_lice.html" target="_top" xlink:title="IGraphics draw class using Cockos&#39; LICE. ">
<polygon fill="white" stroke="black" points="108.5,-114.5 108.5,-133.5 185.5,-133.5 185.5,-114.5 108.5,-114.5"/>
<text text-anchor="middle" x="147" y="-121.5" font-family="Helvetica,sans-Serif" font-size="10.00">IGraphicsLice</text>
</a>
</g>
</g>
<!-- Node1&#45;&gt;Node2 -->
<g id="edge1" class="edge"><title>Node1&#45;&gt;Node2</title>
<path fill="none" stroke="midnightblue" d="M69.7503,-111.402C82.1217,-113.446 95.7933,-115.705 108.103,-117.739"/>
<polygon fill="midnightblue" stroke="midnightblue" points="70.1595,-107.922 59.7227,-109.745 69.0184,-114.829 70.1595,-107.922"/>
</g>
<!-- Node3 -->
<g id="node3" class="node"><title>Node3</title>
<g id="a_node3"><a xlink:href="class_i_graphics_path_base.html" target="_top" xlink:title="A base class to share implementations of IGraphics.h functionality across different path based graphi...">
<polygon fill="white" stroke="black" points="96.5,-76.5 96.5,-95.5 197.5,-95.5 197.5,-76.5 96.5,-76.5"/>
<text text-anchor="middle" x="147" y="-83.5" font-family="Helvetica,sans-Serif" font-size="10.00">IGraphicsPathBase</text>
</a>
</g>
</g>
<!-- Node1&#45;&gt;Node3 -->
<g id="edge2" class="edge"><title>Node1&#45;&gt;Node3</title>
<path fill="none" stroke="midnightblue" d="M69.72,-98.6028C78.2131,-97.1996 87.3203,-95.6949 96.1799,-94.2312"/>
<polygon fill="midnightblue" stroke="midnightblue" points="69.0184,-95.1712 59.7227,-100.255 70.1595,-102.078 69.0184,-95.1712"/>
</g>
<!-- Node4 -->
<g id="node4" class="node"><title>Node4</title>
<g id="a_node4"><a xlink:href="class_i_graphics_a_g_g.html" target="_top" xlink:title="IGraphics draw class using Antigrain Geometry. ">
<polygon fill="white" stroke="black" points="242,-152.5 242,-171.5 322,-171.5 322,-152.5 242,-152.5"/>
<text text-anchor="middle" x="282" y="-159.5" font-family="Helvetica,sans-Serif" font-size="10.00">IGraphicsAGG</text>
</a>
</g>
</g>
<!-- Node3&#45;&gt;Node4 -->
<g id="edge3" class="edge"><title>Node3&#45;&gt;Node4</title>
<path fill="none" stroke="midnightblue" d="M188.859,-99.7249C192.043,-101.331 195.131,-103.088 198,-105 217.36,-117.901 214.777,-129.897 234,-143 239.382,-146.668 245.579,-149.803 251.671,-152.407"/>
<polygon fill="midnightblue" stroke="midnightblue" points="190.29,-96.5306 179.736,-95.5907 187.4,-102.906 190.29,-96.5306"/>
</g>
<!-- Node5 -->
<g id="node5" class="node"><title>Node5</title>
<g id="a_node5"><a xlink:href="class_i_graphics_cairo.html" target="_top" xlink:title="IGraphics draw class using Cairo. ">
<polygon fill="white" stroke="black" points="241,-114.5 241,-133.5 323,-133.5 323,-114.5 241,-114.5"/>
<text text-anchor="middle" x="282" y="-121.5" font-family="Helvetica,sans-Serif" font-size="10.00">IGraphicsCairo</text>
</a>
</g>
</g>
<!-- Node3&#45;&gt;Node5 -->
<g id="edge4" class="edge"><title>Node3&#45;&gt;Node5</title>
<path fill="none" stroke="midnightblue" d="M191.367,-98.3906C209.581,-103.594 230.439,-109.554 247.449,-114.414"/>
<polygon fill="midnightblue" stroke="midnightblue" points="192.138,-94.971 181.562,-95.589 190.215,-101.702 192.138,-94.971"/>
</g>
<!-- Node6 -->
<g id="node6" class="node"><title>Node6</title>
<g id="a_node6"><a xlink:href="class_i_graphics_canvas.html" target="_top" xlink:title="IGraphics draw class HTML5 canvas. ">
<polygon fill="white" stroke="black" points="236,-76.5 236,-95.5 328,-95.5 328,-76.5 236,-76.5"/>
<text text-anchor="middle" x="282" y="-83.5" font-family="Helvetica,sans-Serif" font-size="10.00">IGraphicsCanvas</text>
</a>
</g>
</g>
<!-- Node3&#45;&gt;Node6 -->
<g id="edge5" class="edge"><title>Node3&#45;&gt;Node6</title>
<path fill="none" stroke="midnightblue" d="M207.676,-86C217.132,-86 226.775,-86 235.827,-86"/>
<polygon fill="midnightblue" stroke="midnightblue" points="207.524,-82.5001 197.524,-86 207.524,-89.5001 207.524,-82.5001"/>
</g>
<!-- Node7 -->
<g id="node7" class="node"><title>Node7</title>
<g id="a_node7"><a xlink:href="class_i_graphics_nano_v_g.html" target="_top" xlink:title="IGraphics draw class using NanoVG. ">
<polygon fill="white" stroke="black" points="234,-38.5 234,-57.5 330,-57.5 330,-38.5 234,-38.5"/>
<text text-anchor="middle" x="282" y="-45.5" font-family="Helvetica,sans-Serif" font-size="10.00">IGraphicsNanoVG</text>
</a>
</g>
</g>
<!-- Node3&#45;&gt;Node7 -->
<g id="edge6" class="edge"><title>Node3&#45;&gt;Node7</title>
<path fill="none" stroke="midnightblue" d="M191.367,-73.6094C209.581,-68.4055 230.439,-62.4459 247.449,-57.5859"/>
<polygon fill="midnightblue" stroke="midnightblue" points="190.215,-70.2984 181.562,-76.411 192.138,-77.029 190.215,-70.2984"/>
</g>
<!-- Node8 -->
<g id="node8" class="node"><title>Node8</title>
<g id="a_node8"><a xlink:href="class_i_graphics_skia.html" target="_top" xlink:title="IGraphics draw class using Skia. ">
<polygon fill="white" stroke="black" points="243,-0.5 243,-19.5 321,-19.5 321,-0.5 243,-0.5"/>
<text text-anchor="middle" x="282" y="-7.5" font-family="Helvetica,sans-Serif" font-size="10.00">IGraphicsSkia</text>
</a>
</g>
</g>
<!-- Node3&#45;&gt;Node8 -->
<g id="edge7" class="edge"><title>Node3&#45;&gt;Node8</title>
<path fill="none" stroke="midnightblue" d="M168.714,-70.5521C185.696,-58.3169 210.652,-41.2965 234,-29 240.541,-25.555 247.85,-22.3251 254.719,-19.5401"/>
<polygon fill="midnightblue" stroke="midnightblue" points="166.627,-67.7422 160.612,-76.4638 170.753,-73.397 166.627,-67.7422"/>
</g>
</g>
</svg>
